<svg xmlns="http://www.w3.org/2000/svg" viewBox="0 0 32 32" role="img" aria-label="ask-app">
  <rect width="32" height="32" rx="7" fill="#1f6feb" />
  <!-- Chat bubble (the app's "ask" mark), centred -->
  <g transform="translate(6.5 7) scale(1.19)">
    <path
      fill="#ffffff"
      d="M1 2.75C1 1.784 1.784 1 2.75 1h10.5c.966 0 1.75.784 1.75 1.75v7.5A1.75 1.75 0 0 1 13.25 11H9.06l-2.573 2.573A1.458 1.458 0 0 1 4 12.543V11H2.75A1.75 1.75 0 0 1 1 9.25Zm1.75-.25a.25.25 0 0 0-.25.25v6.5c0 .138.112.25.25.25h2a.75.75 0 0 1 .75.75v1.94l2.22-2.22a.75.75 0 0 1 .53-.22h4.25a.25.25 0 0 0 .25-.25v-7.5a.25.25 0 0 0-.25-.25Z"
    />
  </g>
</svg>
